<?xml version="1.0" encoding="utf-8"?>
<!-- Generator: Adobe Illustrator 26.0.3, SVG Export Plug-In . SVG Version: 6.00 Build 0)  -->
<svg version="1.1" xmlns="http://www.w3.org/2000/svg" xmlns:xlink="http://www.w3.org/1999/xlink" x="0px" y="0px"
	 viewBox="0 0 552.8 622.5" style="enable-background:new 0 0 552.8 622.5;" xml:space="preserve">
<style type="text/css">
	.st0{display:none;}
	.st1{display:inline;fill:#FF79C6;}
	.st2{fill:#F2F2F2;}
	.st3{fill:#FFFFFF;}
	.st4{fill:#FF79C6;}
	.st5{fill:#E6E6E6;}
	.st6{fill:#FFB6B6;}
	.st7{fill:#2F2E41;}
	.st8{fill:#3F3D56;}
	.st9{fill:#CCCCCC;}
</style>
<g id="Layer_2" class="st0">
	<rect x="-28.5" y="1.2" class="st1" width="608.5" height="619"/>
</g>
<g id="Layer_1">
	<path class="st2" d="M353.5,588.5H113.1c-26.1,0-47.3-21.2-47.3-47.3V81.8c0-26.1,21.2-47.3,47.3-47.3h240.4
		c26.1,0,47.3,21.2,47.3,47.3v459.4C400.8,567.3,379.6,588.5,353.5,588.5z"/>
	<path class="st2" d="M400.8,203.5c-1.1,0-2,0.9-2,2v64c0,1.1,0.9,2,2,2s2-0.9,2-2v-64C402.8,204.4,401.9,203.5,400.8,203.5z"/>
	<path class="st3" d="M396.3,81.8v459.4c0,22.7-17.7,41.2-40,42.7h0c-0.3,0-0.7,0-1,0.1c-0.6,0-1.2,0-1.8,0c0,0-2.2-0.2-6.2-0.5
		c-4.1-0.3-10-0.8-17.3-1.3c-2.2-0.2-4.5-0.4-7-0.6c-4.9-0.4-10.3-0.8-16-1.3c-2.3-0.2-4.7-0.4-7.1-0.6c-12.4-1.1-26.3-2.3-41-3.7
		c-2.5-0.2-5-0.5-7.5-0.7c-0.7-0.1-1.3-0.1-2-0.2c-10.5-1-21.2-2.1-32-3.3c-0.7-0.1-1.3-0.1-2-0.2c-18.6-2-37.2-4.3-54.7-6.7
		c-13.4-1.8-26.1-3.8-37.6-5.8c-3.7-0.7-7.3-1.3-10.7-2c-0.7-0.1-1.3-0.3-2-0.4c-24.2-4.8-40-10.1-40-15.4V81.8
		c0-23.6,19.2-42.8,42.8-42.8h25.5c4.1,0,7.4,3.2,7.7,7.2c0,0.3,0.1,0.5,0.1,0.8c0.7,4.1,4.5,6.9,8.6,6.9h156.4
		c4.2,0,7.9-2.8,8.6-6.9c0-0.3,0.1-0.5,0.1-0.8c0.3-4.1,3.6-7.2,7.7-7.2h25.5C377.1,39,396.3,58.1,396.3,81.8z"/>
	<path class="st2" d="M64.8,155.5c-1.1,0-2,0.9-2,2v16c0,1.1,0.9,2,2,2c1.1,0,2-0.9,2-2v-16C66.8,156.4,65.9,155.5,64.8,155.5z"/>
	<path class="st2" d="M64.8,203.5c-1.1,0-2,0.9-2,2v31c0,1.1,0.9,2,2,2c1.1,0,2-0.9,2-2v-31C66.8,204.4,65.9,203.5,64.8,203.5z"/>
	<path class="st2" d="M64.8,247.5c-1.1,0-2,0.9-2,2v31c0,1.1,0.9,2,2,2c1.1,0,2-0.9,2-2v-31C66.8,248.4,65.9,247.5,64.8,247.5z"/>
	<path class="st2" d="M101.3,46h35c1.1,0,2,0.9,2,2v1c0,1.1-0.9,2-2,2h-35c-1.1,0-2-0.9-2-2v-1C99.3,46.9,100.2,46,101.3,46z"/>
	<circle class="st2" cx="334.3" cy="47" r="4"/>
	<circle class="st2" cx="345.3" cy="47" r="4"/>
	<circle class="st2" cx="356.3" cy="47" r="4"/>
	<ellipse class="st4" cx="118.7" cy="172.9" rx="19.4" ry="19"/>
	<path class="st5" d="M274.3,166.4H169.8c-3.6,0-6.5-2.9-6.5-6.5s2.9-6.5,6.5-6.5h104.5c3.6,0,6.5,2.9,6.5,6.5
		S277.9,166.4,274.3,166.4z"/>
	<path class="st2" d="M106.3,386.4c-1.7,0-3,1.4-3,3c0,1.7,1.4,3,3,3h109.4c1.7,0,3-1.4,3-3c0-1.7-1.4-3-3-3H106.3z"/>
	<path class="st5" d="M355.8,188.4h-186c-3.6,0-6.5-2.9-6.5-6.5s2.9-6.5,6.5-6.5h186c3.6,0,6.5,2.9,6.5,6.5S359.4,188.4,355.8,188.4
		z"/>
	<path class="st5" d="M143.5,96.4h-39.8c-2.8,0-5-2.2-5-5c0-2.8,2.2-5,5-5h39.8c2.8,0,5,2.2,5,5C148.5,94.2,146.3,96.4,143.5,96.4z"
		/>
	<path class="st4" d="M315.6,86.9h39.8c2.5,0,4.5,2,4.5,4.5l0,0c0,2.5-2,4.5-4.5,4.5h-39.8c-2.5,0-4.5-2-4.5-4.5l0,0
		C311.1,88.9,313.1,86.9,315.6,86.9z"/>
	<path class="st5" d="M298.3,96.4h-39.8c-2.8,0-5-2.2-5-5c0-2.8,2.2-5,5-5h39.8c2.8,0,5,2.2,5,5C303.3,94.2,301.1,96.4,298.3,96.4z"
		/>
	<path class="st2" d="M149.3,371.7h-38c-6.9,0-12.5-5.6-12.5-12.5v-12.4c0-6.9,5.6-12.5,12.5-12.5h38c6.9,0,12.5,5.6,12.5,12.5v12.4
		C161.8,366.1,156.2,371.7,149.3,371.7z"/>
	<path class="st4" d="M349.8,300.1H111.3c-6.9,0-12.5-5.6-12.5-12.5v-54.7c0-6.9,5.6-12.5,12.5-12.5h238.5c6.9,0,12.5,5.6,12.5,12.5
		v54.7C362.3,294.5,356.7,300.1,349.8,300.1z"/>
	<path class="st2" d="M348.3,371.7h-38c-6.9,0-12.5-5.6-12.5-12.5v-12.4c0-6.9,5.6-12.5,12.5-12.5h38c6.9,0,12.5,5.6,12.5,12.5v12.4
		C360.8,366.1,355.2,371.7,348.3,371.7z"/>
	<path class="st2" d="M247.8,371.7h-38c-6.9,0-12.5-5.6-12.5-12.5v-12.4c0-6.9,5.6-12.5,12.5-12.5h38c6.9,0,12.5,5.6,12.5,12.5v12.4
		C260.3,366.1,254.7,371.7,247.8,371.7z"/>
	<g>
		<rect x="132.8" y="426.9" class="st2" width="30" height="28"/>
		<rect x="145.8" y="466.9" class="st2" width="17" height="28"/>
		<rect x="171.8" y="466.9" class="st2" width="30" height="28"/>
		<rect x="171.8" y="506.9" class="st2" width="30" height="28"/>
		<rect x="210.8" y="466.9" class="st2" width="30" height="28"/>
		<rect x="171.8" y="426.9" class="st2" width="30" height="28"/>
		<rect x="210.8" y="426.9" class="st2" width="30" height="28"/>
		<rect x="288.8" y="426.9" class="st2" width="30" height="28"/>
		<rect x="210.8" y="506.9" class="st2" width="30" height="28"/>
		<rect x="249.8" y="426.9" class="st2" width="30" height="28"/>
		<path class="st2" d="M334.3,466.9h-19.5v28h19.5c2.8,0,5-2.2,5-5v-18C339.3,469.1,337.1,466.9,334.3,466.9z"/>
		<path class="st2" d="M162.8,506.9h-6c-2.8,0-5,2.2-5,5v18c0,2.8,2.2,5,5,5h6V506.9z"/>
		<rect x="249.8" y="506.9" class="st2" width="30" height="28"/>
		<path class="st2" d="M356.8,426.9h-29v28h29c2.8,0,5-2.2,5-5v-18C361.8,429.1,359.6,426.9,356.8,426.9z"/>
		<path class="st2" d="M305.8,507.3c-0.6-0.3-1.3-0.4-2-0.4h-15v28h15c0.7,0,1.4-0.2,2-0.4V507.3z"/>
		<rect x="249.8" y="466.9" class="st2" width="30" height="28"/>
		<rect x="288.8" y="466.9" class="st2" width="17" height="28"/>
		<path class="st2" d="M136.8,466.9h-10.5c-2.8,0-5,2.2-5,5v18c0,2.8,2.2,5,5,5h10.5V466.9z"/>
		<path class="st2" d="M123.8,426.9h-20c-2.8,0-5,2.2-5,5v18c0,2.8,2.2,5,5,5h20V426.9z"/>
	</g>
	<g>
		<g>
			<polygon class="st6" points="316.8,577.5 307.9,577.5 303.7,543.1 316.8,543.1 			"/>
			<path class="st7" d="M317.1,586.8l-27.4,0v-0.3c0-5.9,4.8-10.7,10.7-10.7h0l5-3.8l9.3,3.8l2.4,0L317.1,586.8z"/>
		</g>
		<g>
			<polygon class="st6" points="372.3,577.5 363.4,577.5 359.1,543.1 372.3,543.1 			"/>
			<path class="st7" d="M372.6,586.8l-27.4,0v-0.3c0-5.9,4.8-10.7,10.7-10.7h0l5-3.8l9.3,3.8l2.4,0L372.6,586.8z"/>
		</g>
		<path class="st7" d="M390.3,314.3h-76.5l-9.3,28.7l-2.2,122l0.4,95.2l17.4,0.1L335.4,458c0,0-1.7-10.1,1.3-8.7s-2.1-11,1.5-9.8
			s7-46.6,7-46.6l8.4,72.1l5.4,95.2h15.7l13.2-146.9c0,0-4.1-8.9,1.3-14.8s4.9-54.7,4.9-54.7L390.3,314.3L390.3,314.3z"/>
		<path class="st8" d="M392.3,312.5c0,0,7.3,10.4,0.9,26.8c-10.6,27.2-81.2,4.3-85.5-12.6c-6.6-2.3,4.4-5.6,1.2-11.2
			c-0.2-0.3,1.8,7.2,0.2-1.1c-2.6-13.4,1.8-54.5,1.8-54.5l1.5-24.4c1.4-23.7,11-46.1,27.2-63.4l0,0h36.7l15.9,25.9l1.7,64.9
			L392.3,312.5L392.3,312.5z"/>
		<g>
			<path class="st6" d="M280.3,315l11.4-17.3l9.9,5.7L289,321.2c0,0.7,0,1.4-0.2,2.1c-0.8,3.8-4.3,6.2-7.8,5.3s-5.7-4.7-4.8-8.6
				C276.7,317.6,278.3,315.7,280.3,315L280.3,315z"/>
			<path class="st8" d="M334.2,177.5L334.2,177.5c-12.8,0-23.3,10-23.8,22.8l-2.4,54.9c0,0,0,3.1-1.1,2.1s-1.2,2.3-1.2,2.3
				s-0.1,4.9-1.1,2.1s-1.2,2.3-1.2,2.3l-15.5,26.7c2.1,4.3,0.5,9.6-0.1,14l0,0l11.1,10.3c0,0-0.1-3.1,2.3-3
				c14.7,0.3,29.8-39.5,29.6-54.2C330.4,241,334.2,177.5,334.2,177.5L334.2,177.5z"/>
		</g>
		<g>
			<path class="st6" d="M339.5,101.1l11.4,17.3l9.9-5.7l-12.6-17.8c0-0.7,0-1.4-0.2-2.1c-0.8-3.8-4.3-6.2-7.8-5.3
				c-3.5,0.9-5.7,4.7-4.8,8.6C335.8,98.5,337.4,100.3,339.5,101.1L339.5,101.1z"/>
			<path class="st8" d="M393.4,238.5L393.4,238.5c-12.8,0-23.3-10-23.8-22.8l-2.4-54.9c0,0,0-3.1-1.1-2.1s-1.2-2.3-1.2-2.3
				s-0.1-4.9-1.1-2.1s-1.2-2.3-1.2-2.3l-20.3-38l1.2-5l11.1-8.3c0,0,4.5,1.4,5.9,3.3c7.3,9.7,29.3,40.2,29.6,54.2
				C390.2,175.1,393.4,238.5,393.4,238.5L393.4,238.5z"/>
		</g>
		<path class="st6" d="M348.4,166.4c0.5,0.1,1.1,0.2,1.6,0.3c1.7,0.3,3.4,0.4,5,0.3c5-0.3,9.7-2.1,13.5-5.2c4-3.2,7-7.8,8.3-13.2
			c3-12.7-5-25.5-17.7-28.5c-12.6-2.9-25.1,4.7-28.3,17.1c-0.1,0.2-0.1,0.4-0.1,0.6C327.7,150.7,335.6,163.5,348.4,166.4
			L348.4,166.4z"/>
		<path class="st7" d="M378.1,151.1c-3.3,8.7-11.7,15.7-21,16.1c-1.6,0.1-3.2-0.1-4.6-0.8c-1.4-0.7-2.5-2.3-2.4-3.8
			c0.2-3.1,4.5-4.3,5.7-7.2c0.8-1.9-0.1-4.4-2-5.3c-1.9-0.9-4.4-0.2-5.5,1.6c1.9-3,0.8-7.1-1.6-9.7c-2.4-2.6-5.9-3.9-9.2-5.1
			l-0.1-1.3c-2.3,0.9-4.9-0.9-5.9-3.2c1.2-1.4,1.9-3.2,2.7-4.9c-1,0.7-2.1,1.2-3.2,1.5c0.1-2-3-3-2.5-5c0.7-2.8,4.9-6.9,3.5-9.4
			c2.6,0.7,4.2,3.7,3.5,6.2c0.9-2.5,1.8-5,2.7-7.5c0.7,1.7,1.4,3.5,2.1,5.2c3.5-2.2,7.1-4.4,11.1-5.1c4-0.7,8.7,0.5,11,3.9
			c2.4-1.4,5.5-1,7.8,0.5c2.3,1.5,4,3.8,5.3,6.3C380.1,132.3,381.4,142.4,378.1,151.1L378.1,151.1z"/>
	</g>
	<g>
		<path class="st2" d="M498.6,593.3c2.1,0.1,3.2-2.4,1.6-3.9l-0.2-0.6c0,0,0-0.1,0.1-0.1c2.1-5,9.2-4.9,11.2,0
			c1.8,4.4,4.2,8.9,4.8,13.5c0.3,2.1,0.1,4.2-0.3,6.2c4.3-9.4,6.6-19.7,6.6-30c0-2.6-0.1-5.2-0.4-7.8c-0.2-2.1-0.6-4.2-1-6.3
			c-2.3-11.3-7.3-22-14.5-31c-3.5-1.9-6.3-4.9-8.1-8.4c-0.6-1.3-1.1-2.7-1.3-4.1c0.4,0.1,1.5-5.9,1.2-6.3c0.5-0.8,1.5-1.2,2.1-2.1
			c3-4,7.1-3.3,9.2,2.2c4.6,2.3,4.6,6.1,1.8,9.8c-1.8,2.3-2,5.5-3.6,8c0.2,0.2,0.3,0.4,0.5,0.6c3,3.8,5.5,7.9,7.7,12.2
			c-0.6-4.8,0.3-10.5,1.8-14.2c1.7-4.2,5-7.8,7.9-11.4c3.5-4.4,10.6-2.5,11.2,3.1c0,0.1,0,0.1,0,0.2c-0.4,0.2-0.8,0.5-1.3,0.8
			c-2.3,1.5-1.5,5.2,1.2,5.6l0.1,0c-0.2,1.5-0.4,3.1-0.8,4.6c3.7,14.3-4.3,19.5-15.7,19.8c-0.3,0.1-0.5,0.3-0.7,0.4
			c1.2,3.3,2.1,6.6,2.8,10c0.6,3,1,6,1.3,9c0.3,3.8,0.3,7.7-0.1,11.5l0-0.1c0.8-4.2,3.1-8.1,6.4-10.9c4.9-4.1,11.9-5.6,17.3-8.8
			c2.6-1.6,5.9,0.5,5.4,3.4l0,0.1c-0.8,0.3-1.6,0.7-2.3,1.1c-0.4,0.2-0.8,0.5-1.3,0.8c-2.3,1.5-1.5,5.2,1.2,5.6l0.1,0
			c0,0,0.1,0,0.1,0c-1.4,3.2-3.3,6.2-5.6,8.8c-2.3,12.5-12.3,13.7-22.9,10h0c-1.2,5.1-2.9,10-5,14.7h-18c-0.1-0.2-0.1-0.4-0.2-0.6
			c1.7,0.1,3.3,0,5-0.3c-1.3-1.6-2.7-3.3-4-4.9c0,0-0.1-0.1-0.1-0.1c-0.7-0.8-1.4-1.7-2-2.5l0,0
			C497.6,598.4,497.9,595.8,498.6,593.3L498.6,593.3L498.6,593.3z"/>
		<path class="st9" d="M0,609.5c0,0.7,0.5,1.2,1.2,1.2h550.3c0.7,0,1.2-0.5,1.2-1.2c0-0.7-0.5-1.2-1.2-1.2H1.2
			C0.5,608.3,0,608.8,0,609.5z"/>
	</g>
</g>
</svg>
